<?xml version="1.0" standalone="no"?>
<!DOCTYPE svg PUBLIC "-//W3C//DTD SVG 20010904//EN"
 "http://www.w3.org/TR/2001/REC-SVG-20010904/DTD/svg10.dtd">
<svg version="1.0" xmlns="http://www.w3.org/2000/svg"
 width="1000.000000pt" height="1000.000000pt" viewBox="0 0 1000.000000 1000.000000"
 preserveAspectRatio="xMidYMid meet">
<metadata>
Created by potrace 1.14, written by Peter Selinger 2001-2017
</metadata>
<g transform="translate(0.000000,1000.000000) scale(0.100000,-0.100000)"
fill="#000000" stroke="none">
<path d="M2394 9846 c-70 -31 -144 -197 -144 -321 0 -108 2 -109 216 -180 317
-105 560 -247 798 -468 l41 -37 -120 40 c-163 56 -353 104 -515 131 -195 33
-555 33 -745 0 -260 -44 -536 -138 -734 -249 -309 -172 -615 -523 -846 -968
-89 -171 -215 -479 -215 -525 0 -19 1 -19 38 -3 41 18 206 78 267 99 22 7 119
41 215 74 489 172 869 276 1200 327 112 17 329 57 395 73 22 6 117 29 210 51
193 47 363 95 515 146 58 20 117 39 132 44 l27 8 -38 -51 c-49 -67 -107 -169
-177 -315 -171 -353 -253 -558 -299 -742 -7 -30 -25 -100 -39 -155 -46 -178
-118 -529 -135 -660 -113 -863 -97 -1613 50 -2295 143 -660 371 -1173 738
-1655 78 -102 99 -129 116 -149 6 -6 25 -29 44 -51 88 -103 257 -278 366 -378
761 -700 1570 -1103 2735 -1362 193 -43 470 -86 715 -111 256 -26 715 -24 935
5 452 59 785 171 1086 366 336 218 534 510 619 912 23 106 31 401 16 573 -13
149 -48 376 -81 521 -12 52 -26 112 -30 134 -44 203 -136 505 -287 945 -53
151 -166 484 -253 740 -87 256 -185 542 -218 635 -33 94 -92 269 -131 391 -65
200 -102 310 -222 654 -23 63 -51 142 -64 175 -13 33 -40 103 -60 155 -38 98
-106 258 -156 368 -16 35 -29 65 -29 67 0 3 -101 216 -147 310 -85 175 -223
411 -351 600 -168 249 -329 445 -550 668 -317 321 -583 514 -877 636 -489 204
-1211 228 -1854 61 -226 -58 -489 -165 -616 -251 -25 -17 -50 -28 -54 -23
-380 429 -659 693 -891 843 -222 143 -507 237 -596 197z m4314 -1831 c76 -35
127 -73 218 -161 233 -227 406 -494 447 -690 14 -68 -4 -129 -46 -154 -64 -39
-183 -33 -277 15 -160 82 -433 445 -521 695 -25 71 -49 173 -49 211 0 36 23
84 47 98 33 19 125 12 181 -14z m-3090 -406 c4 -36 -98 -338 -164 -484 -41
-90 -137 -392 -188 -588 -104 -401 -158 -728 -203 -1237 -21 -238 -24 -833 -5
-1040 17 -184 48 -424 66 -515 8 -38 24 -119 36 -180 12 -60 31 -143 41 -184
21 -84 23 -99 10 -86 -30 32 -104 299 -151 545 -12 63 -28 149 -36 190 -29
148 -78 535 -101 790 -21 243 -24 781 -5 950 21 183 59 411 92 555 5 22 24
101 41 175 56 247 153 560 235 762 93 230 148 312 239 355 62 29 89 27 93 -8z
m3952 -899 c40 -20 113 -102 155 -174 28 -48 84 -181 89 -211 14 -84 -134 -40
-228 67 -44 51 -112 177 -136 257 -13 42 -13 44 9 62 30 24 62 24 111 -1z
m1550 -5964 c0 -2 -8 -10 -17 -17 -16 -13 -17 -12 -4 4 13 16 21 21 21 13z
m-90 -60 c0 -2 -7 -7 -16 -10 -8 -3 -12 -2 -9 4 6 10 25 14 25 6z"/>
</g>
</svg>
